<svg width="111" height="117" viewBox="0 0 111 117" fill="none" xmlns="http://www.w3.org/2000/svg">
<path d="M11.9 24C14.7909 24 17.5633 22.7884 19.6075 20.6317C21.6516 18.4751 22.8 15.55 22.8 12.5C22.8 9.45001 21.6516 6.52494 19.6075 4.36827C17.5633 2.2116 14.7909 1 11.9 1C9.00914 1 6.23668 2.2116 4.19254 4.36827C2.14839 6.52494 1 9.45001 1 12.5C1 15.55 2.14839 18.4751 4.19254 20.6317C6.23668 22.7884 9.00914 24 11.9 24ZM17.35 110.25C21.6863 110.25 25.845 108.433 28.9112 105.198C31.9774 101.963 33.7 97.575 33.7 93C33.7 88.425 31.9774 84.0374 28.9112 80.8024C25.845 77.5674 21.6863 75.75 17.35 75.75C13.0137 75.75 8.85502 77.5674 5.7888 80.8024C2.72258 84.0374 1 88.425 1 93C1 97.575 2.72258 101.963 5.7888 105.198C8.85502 108.433 13.0137 110.25 17.35 110.25ZM93.65 116C97.9863 116 102.145 114.183 105.211 110.948C108.277 107.713 110 103.325 110 98.75C110 94.175 108.277 89.7874 105.211 86.5524C102.145 83.3174 97.9863 81.5 93.65 81.5C89.3137 81.5 85.155 83.3174 82.0888 86.5524C79.0226 89.7874 77.3 94.175 77.3 98.75C77.3 103.325 79.0226 107.713 82.0888 110.948C85.155 114.183 89.3137 116 93.65 116ZM50.05 70C55.8317 70 61.3766 67.5768 65.4649 63.2635C69.5532 58.9501 71.85 53.1 71.85 47C71.85 40.9 69.5532 35.0499 65.4649 30.7365C61.3766 26.4232 55.8317 24 50.05 24C44.2683 24 38.7234 26.4232 34.6351 30.7365C30.5468 35.0499 28.25 40.9 28.25 47C28.25 53.1 30.5468 58.9501 34.6351 63.2635C38.7234 67.5768 44.2683 70 50.05 70ZM82.75 24C85.6409 24 88.4133 22.7884 90.4575 20.6317C92.5016 18.4751 93.65 15.55 93.65 12.5C93.65 9.45001 92.5016 6.52494 90.4575 4.36827C88.4133 2.2116 85.6409 1 82.75 1C79.8591 1 77.0867 2.2116 75.0425 4.36827C72.9984 6.52494 71.85 9.45001 71.85 12.5C71.85 15.55 72.9984 18.4751 75.0425 20.6317C77.0867 22.7884 79.8591 24 82.75 24Z" stroke="#4C4B4B" stroke-width="2" stroke-linecap="round" stroke-linejoin="round"/>
<path d="M20.075 21.125L30.975 32.625M71.85 24L66.4 29.75M82.75 85.8125L66.4 64.25M28.25 78.625L39.15 67.125" stroke="#4C4B4B" stroke-width="2" stroke-linecap="round" stroke-linejoin="round"/>
</svg>
