<svg width="97" height="103" viewBox="0 0 97 103" fill="none" xmlns="http://www.w3.org/2000/svg">
<path d="M86.0704 0.522639C88.9032 0.539966 91.6127 1.74621 93.6028 3.87601C95.593 6.00581 96.7008 8.8847 96.6824 11.8794L96.6134 23.1708C96.5951 26.1654 95.4522 29.0306 93.4361 31.1359C91.4201 33.2411 88.696 34.4142 85.8632 34.3968L11.0955 33.9395C8.26269 33.9222 5.55319 32.7159 3.56304 30.5862C1.5729 28.4564 0.46514 25.5775 0.483457 22.5828L0.552519 11.2914C0.570836 8.29673 1.71373 5.4316 3.72978 3.32631C5.74582 1.22101 8.46988 0.0480033 11.3027 0.0653299L86.0704 0.522639ZM32.3886 45.3616C35.2214 45.3789 37.9309 46.5852 39.9211 48.7149C41.9112 50.8447 43.019 53.7236 43.0007 56.7183L42.7935 90.5925C42.7752 93.5872 41.6323 96.4523 39.6162 98.5576C37.6002 100.663 34.8761 101.836 32.0433 101.819L10.6811 101.688C7.84832 101.671 5.13881 100.464 3.14867 98.3345C1.15852 96.2047 0.0507638 93.3258 0.0690803 90.3312L0.276268 56.457C0.294585 53.4623 1.43748 50.5972 3.45352 48.4919C5.46957 46.3866 8.19363 45.2136 11.0264 45.2309L32.3886 45.3616ZM91.1347 45.7209C92.5511 45.7296 93.9059 46.3327 94.9009 47.3976C95.896 48.4625 96.4499 49.9019 96.4407 51.3993C96.4316 52.8966 95.8601 54.3292 94.8521 55.3818C93.8441 56.4344 92.482 57.021 91.0656 57.0123L59.0223 56.8163C57.6059 56.8076 56.2512 56.2045 55.2561 55.1396C54.261 54.0747 53.7072 52.6353 53.7163 51.1379C53.7255 49.6406 54.2969 48.208 55.3049 47.1554C56.313 46.1027 57.675 45.5162 59.0914 45.5249L91.1347 45.7209ZM90.9966 68.3037C92.413 68.3124 93.7677 68.9155 94.7628 69.9804C95.7579 71.0453 96.3117 72.4847 96.3026 73.9821C96.2934 75.4794 95.722 76.912 94.714 77.9646C93.7059 79.0172 92.3439 79.6037 90.9275 79.5951L58.8842 79.3991C57.4678 79.3904 56.1131 78.7873 55.118 77.7224C54.1229 76.6575 53.569 75.2181 53.5782 73.7207C53.5873 72.2234 54.1588 70.7908 55.1668 69.7382C56.1748 68.6855 57.5369 68.099 58.9533 68.1077L90.9966 68.3037ZM90.8584 90.8865C92.2748 90.8951 93.6296 91.4983 94.6247 92.5632C95.6197 93.6281 96.1736 95.0675 96.1645 96.5648C96.1553 98.0622 95.5839 99.4947 94.5758 100.547C93.5678 101.6 92.2058 102.187 90.7894 102.178L58.7461 101.982C57.3297 101.973 55.9749 101.37 54.9799 100.305C53.9848 99.2403 53.4309 97.8009 53.4401 96.3035C53.4492 94.8062 54.0207 93.3736 55.0287 92.321C56.0367 91.2683 57.3987 90.6818 58.8151 90.6905L90.8584 90.8865Z" fill="#4C4B4B"/>
</svg>
