<svg width="74" height="74" viewBox="0 0 74 74" fill="none" xmlns="http://www.w3.org/2000/svg">
<path d="M72.25 16.8333C72.25 25.5812 56.2979 32.6667 36.625 32.6667C16.9521 32.6667 1 25.5812 1 16.8333C1 8.08542 16.9521 1 36.625 1C56.2979 1 72.25 8.08542 72.25 16.8333Z" fill="white"/>
<path d="M72.25 16.8333C72.25 25.5812 56.2979 32.6667 36.625 32.6667C16.9521 32.6667 1 25.5812 1 16.8333M72.25 16.8333C72.25 8.08542 56.2979 1 36.625 1C16.9521 1 1 8.08542 1 16.8333M72.25 16.8333V36.625M1 16.8333V36.625M72.25 36.625C72.25 45.3729 56.2979 52.4583 36.625 52.4583C16.9521 52.4583 1 45.3729 1 36.625M72.25 36.625V56.4167C72.25 65.1646 56.2979 72.25 36.625 72.25C16.9521 72.25 1 65.1646 1 56.4167V36.625" stroke="#FFF5F5" stroke-width="2" stroke-linecap="round" stroke-linejoin="round"/>
</svg>
