<svg width="81" height="57" viewBox="0 0 81 57" fill="none" xmlns="http://www.w3.org/2000/svg">
<path d="M28.625 28.5C36.2646 28.5 42.4792 22.2854 42.4792 14.6458C42.4792 7.00621 36.2646 0.791626 28.625 0.791626C20.9854 0.791626 14.7709 7.00621 14.7709 14.6458C14.7709 22.2854 20.9854 28.5 28.625 28.5ZM28.625 8.70829C31.9104 8.70829 34.5625 11.3604 34.5625 14.6458C34.5625 17.9312 31.9104 20.5833 28.625 20.5833C25.3396 20.5833 22.6875 17.9312 22.6875 14.6458C22.6875 11.3604 25.3396 8.70829 28.625 8.70829ZM28.625 35.427C19.3625 35.427 0.916687 40.0583 0.916687 49.2812V56.2083H56.3334V49.2812C56.3334 40.0583 37.8875 35.427 28.625 35.427ZM10.1792 48.2916C13.5042 45.9958 21.5396 43.3437 28.625 43.3437C35.7104 43.3437 43.7459 45.9958 47.0709 48.2916H10.1792ZM56.4917 35.6645C61.0834 38.9895 64.25 43.4229 64.25 49.2812V56.2083H80.0834V49.2812C80.0834 41.2854 66.2292 36.7333 56.4917 35.6645ZM52.375 28.5C60.0146 28.5 66.2292 22.2854 66.2292 14.6458C66.2292 7.00621 60.0146 0.791626 52.375 0.791626C50.2375 0.791626 48.2584 1.30621 46.4375 2.17704C48.9313 5.69996 50.3959 10.0145 50.3959 14.6458C50.3959 19.277 48.9313 23.5916 46.4375 27.1145C48.2584 27.9854 50.2375 28.5 52.375 28.5Z" fill="white"/>
</svg>
